<svg xmlns="http://www.w3.org/2000/svg" width="153" height="32" fill="none"><path fill="#243238" d="M30.589 11.484v3.478c1.304-2.457 3.066-3.686 5.252-3.686v5.831h-1.373c-1.287 0-2.253.312-2.897.935-.644.623-.965 1.713-.965 3.287v8.842h-5.608V11.484h5.59ZM40.365 27.785c-1.622-1.788-2.416-4.096-2.416-6.891s.81-5.104 2.416-6.91c1.621-1.805 3.581-2.708 5.912-2.708 2.315 0 4.105.886 5.356 2.656v-2.447h5.591V30.25h-5.591v-2.725c-1.352 1.979-3.16 2.951-5.423 2.951-2.28 0-4.224-.885-5.845-2.69Zm10.051-3.489c.811-.799 1.217-1.944 1.217-3.437 0-1.476-.406-2.622-1.217-3.42-.81-.799-1.74-1.198-2.787-1.198-1.048 0-1.977.4-2.788 1.215-.81.799-1.216 1.945-1.216 3.438s.406 2.62 1.216 3.42c.811.798 1.74 1.197 2.788 1.197 1.047 0 1.976-.416 2.787-1.215ZM71.38 11.495v4.751h-2.32v13.925h-5.624V16.246h-1.694v-4.751h1.694v-.709c0-2.367.61-4.094 1.846-5.183 1.237-1.088 3.185-1.641 5.827-1.641v4.855c-.745 0-1.27.138-1.592.432-.322.293-.474.794-.474 1.537v.709h2.337ZM82.968 25.084h1.965v4.783h-2.798c-2.015 0-3.58-.46-4.697-1.362-1.116-.919-1.665-2.485-1.665-4.697v-7.642H74.09v-4.68h1.682V7.01h5.513v4.476H84.9v4.68h-3.614v7.642c0 .85.55 1.276 1.682 1.276ZM89.15 29.867V11.58h5.42v18.286h-5.42ZM111.891 11.581h5.57v18.705h-5.57v-2.751c-1.144 1.972-2.995 2.941-5.502 2.941-2.086 0-3.769-.71-5.064-2.145-1.296-1.437-1.935-3.375-1.935-5.832V11.581h5.535v10.157c0 1.211.303 2.146.926 2.803.622.658 1.464.986 2.557.986 1.094 0 1.935-.328 2.558-.986.622-.657.925-1.592.925-2.803V11.581ZM127.859 11.466v2.752c1.15-1.973 2.993-2.942 5.529-2.942 1.352 0 2.553.312 3.618.935s1.876 1.522 2.468 2.682a7.911 7.911 0 0 1 2.638-2.63c1.082-.658 2.282-.987 3.618-.987 2.232 0 3.99.71 5.309 2.111 1.302 1.402 1.961 3.357 1.961 5.866v10.918h-5.562V20.014c0-1.21-.305-2.145-.93-2.803-.626-.657-1.471-.986-2.57-.986-1.099 0-1.945.329-2.57.986-.626.658-.93 1.592-.93 2.803v10.157h-5.563V20.014c0-1.21-.304-2.145-.929-2.803-.626-.657-1.471-.986-2.57-.986-1.099 0-1.945.329-2.57.986-.626.658-.93 1.592-.93 2.803v10.157h-5.596V11.467h5.579ZM95.474 2.133h-3.463c-1.908 0-3.464 1.558-3.464 3.505 0 1.93 1.54 3.505 3.464 3.505 1.907 0 3.463-1.558 3.463-3.505V2.133ZM15.375 21.943v.122h-.015c.015-.03.015-.076.015-.122ZM15.375 12.19v9.427c0 .103 0 .206-.015.326l.015-9.753Z"/><path fill="#243238" d="M15.375 21.63c0 .099 0 .198-.015.313v-.61c.015.1.015.198.015.297Z"/><path fill="#243238" d="M20.782 0v21.481c0 .154 0 .308-.017.444C20.529 27.526 15.975 32 10.39 32 4.656 32 0 27.287 0 21.481c0-5.805 4.656-10.518 10.39-10.518h1.789v5.788H10.39c-2.581 0-4.673 2.118-4.673 4.73 0 2.613 2.092 4.73 4.673 4.73 2.429 0 4.436-1.878 4.655-4.286h.017v-.136c0-.103.017-.205.017-.325V0h5.702ZM21.685 21.638v.305-.305Z"/><path fill="#243238" d="M15.375 21.943v.122h-.015c.015-.03.015-.076.015-.122Z"/></svg>