<svg xmlns="http://www.w3.org/2000/svg" width="171" height="25" fill="none"><path fill="#1348C2" d="m79.025 2.64-6.853 20.864c-.247.748-.825 1.163-1.568 1.163-.743 0-1.321-.498-1.569-1.163L63.338 6.13l-5.697 17.373c-.247.748-.825 1.163-1.568 1.163-.743 0-1.321-.498-1.569-1.163L47.57 2.639a1.653 1.653 0 0 1 .908-1.995 1.446 1.446 0 0 1 1.816.915l5.697 17.29 5.532-16.792c.248-.83.99-1.33 1.734-1.33.743 0 1.486.5 1.734 1.33L70.52 18.85l5.697-17.29c.248-.832 1.073-1.247 1.816-.915.909.25 1.239 1.164.991 1.995Zm14.531 13.216c0 .831-.66 1.58-1.486 1.58H81.172c.578 2.576 2.394 4.405 4.623 4.405h.826c1.321 0 2.642-.582 3.633-1.662.578-.582 1.486-.665 2.064-.083.578.581.578 1.579.082 2.16-1.486 1.663-3.55 2.578-5.696 2.578h-.826c-4.293 0-7.678-4.073-7.678-9.06 0-4.988 3.467-9.062 7.678-9.062 4.21 0 7.678 4.074 7.678 9.144Zm-12.384-1.58h9.247c-.578-2.576-2.394-4.405-4.624-4.405-2.229 0-4.045 1.829-4.623 4.406Zm30.3 1.58c0 4.988-3.467 9.06-7.678 9.06-1.816 0-3.468-.747-4.789-1.994v.166c0 .831-.66 1.58-1.486 1.58-.825 0-1.486-.665-1.486-1.58V1.891c0-.831.66-1.58 1.486-1.58s1.486.666 1.486 1.58v6.816c1.321-1.246 2.973-1.995 4.789-1.995 4.211 0 7.678 4.074 7.678 9.144Zm-2.889 0c0-3.325-2.147-5.985-4.789-5.985s-4.789 2.66-4.789 5.985 2.147 5.985 4.789 5.985 4.789-2.743 4.789-5.985ZM115.6.312c-.825 0-1.486.665-1.486 1.58v21.28c0 .83.661 1.579 1.486 1.579.826 0 1.487-.665 1.487-1.58V1.891c0-.914-.661-1.58-1.487-1.58Zm6.275 6.65c-.825 0-1.486.665-1.486 1.58v14.63c0 .83.661 1.579 1.486 1.579.826 0 1.486-.665 1.486-1.58V8.541c0-.914-.66-1.58-1.486-1.58Zm0-6.65c-.825 0-1.486.665-1.486 1.58v.913c0 .832.661 1.58 1.486 1.58.826 0 1.486-.665 1.486-1.58v-.914c0-.914-.66-1.58-1.486-1.58Zm17.999 6.65c-.826 0-1.486.665-1.486 1.58v8.229c0 2.826-1.982 5.07-4.376 5.07s-4.376-2.244-4.376-5.07V8.54c0-.831-.66-1.58-1.486-1.58s-1.486.666-1.486 1.58v8.23c0 4.488 3.302 8.229 7.265 8.229 1.652 0 3.138-.582 4.376-1.663.083.832.661 1.414 1.486 1.414.826 0 1.486-.665 1.486-1.58V8.541c0-.914-.66-1.58-1.403-1.58Zm23.778-.25c-2.394 0-4.541 1.247-5.862 3.242-1.321-1.995-3.468-3.242-5.862-3.242-1.651 0-3.137.582-4.376 1.663-.082-.831-.66-1.413-1.486-1.413s-1.486.665-1.486 1.58v14.63c0 .83.66 1.579 1.486 1.579s1.486-.665 1.486-1.58v-8.23c0-2.825 1.982-5.07 4.376-5.07s4.376 2.245 4.376 5.07v8.23c0 .832.66 1.58 1.486 1.58s1.486-.665 1.486-1.58v-8.23c0-2.825 1.982-5.07 4.376-5.07s4.376 2.245 4.376 5.07v8.23c0 .832.66 1.58 1.486 1.58.825 0 1.486-.665 1.486-1.58v-8.23c-.083-4.488-3.385-8.229-7.348-8.229ZM34.607.81c.578-.498 1.32-.498 1.981-.083.578.416.826 1.164.578 1.912l-7.183 20.865c-.165.582-.66.997-1.238 1.163-.165.084-.33.084-.495.084-.413 0-.826-.167-1.156-.416l-4.459-3.574c-.578-.5-.66-1.413-.248-1.995.413-.582 1.404-.749 1.982-.25l3.385 2.743 5.367-15.544-22.953 18.62c-.495.416-1.073.499-1.651.332-.578-.166-1.073-.581-1.238-1.163L.096 2.639c-.248-.748 0-1.496.578-1.912.66-.415 1.403-.415 1.981.083l7.266 5.902 7.843-6.4a1.361 1.361 0 0 1 1.734 0l3.798 3.159c.578.498.66 1.413.247 1.995-.495.581-1.403.748-1.981.249l-2.972-2.41-7.844 6.317a1.361 1.361 0 0 1-1.734 0l-4.87-3.907 5.366 15.544L34.607.81Z"/></svg>